# xmcd
# 
# Track frame offsets:
#     150
#     15982
#     27960
#     43145
#     60161
#     75134
#     96505
#     109923
#     123624
#     136310
#     150404
#     165707
#     181579
#     195644
#     211095
#     225034
# 
# Disc length: 3177
# 
# Revision: 1
# Processed by: cddbd v1.5.2PL0 Copyright (c) Steve Scherf et al.
# Submitted via: fre:ac v1.0.17
# 
DISCID=b50c6710
DTITLE=Louis Armstrong - Side By Side - Disc 2
DYEAR=2005
DGENRE=Jazz
TTITLE0=High Society
TTITLE1=Jeepers Creepers
TTITLE2=Body And Soul
TTITLE3=Pennies From Heaven
TTITLE4=You Rascal You
TTITLE5=Tea For Two
TTITLE6=Save It Pretty Mama
TTITLE7=Jack-Armstrong Blues
TTITLE8=Baby Won't You Please Come Home
TTITLE9=Rockin' Chair
TTITLE10=Ain't Misbehavin'
TTITLE11=When Your Smiling
TTITLE12=I'm In The Mood For Love
TTITLE13=Chicago Breakdown
TTITLE14=I Got Rhythm
TTITLE15=On The Sunny Side Of The Street
EXTD=
EXTT0=
EXTT1=
EXTT2=
EXTT3=
EXTT4=
EXTT5=
EXTT6=
EXTT7=
EXTT8=
EXTT9=
EXTT10=
EXTT11=
EXTT12=
EXTT13=
EXTT14=
EXTT15=
PLAYORDER=
